<svg xmlns="http://www.w3.org/2000/svg" xmlns:xlink="http://www.w3.org/1999/xlink" version="1.1" width="1000" height="1000" enable-background="new 0 0 800 600">
  <rect id="backgroundrect" width="100%" height="100%" x="0" y="0" fill="none" stroke="none" class="" style="" />
  <style type="text/css">
    .st0{fill:#ffffff;}
  </style>
  <rect fill="#a57164" width="1000" height="1000" id="svg_2" />
  <g class="currentLayer" style="">
    <title>Abstract Dynamic Pattern</title>
    <g id="svg_1" class="selected">
      <path class="st0" d="M141.21658648874566,114.55067708045624 c-5.104885283262467,6.82470549904796 -5.104885283262467,17.810816790198338 0,24.8019785209304 v0 c5.104885283262467,6.82470549904796 13.322505495343508,6.82470549904796 18.55190017575872,0 L263.60932388989204,0.36170214516590704 h-36.979290954364686 L141.21658648874566,114.55067708045624 z" id="svg_3" />
      <path class="st0" d="M244.5593861255224,98.73733507046717 c-5.104885283262467,-6.82470549904796 -13.322505495343508,-6.82470549904796 -18.55190017575872,0 l-92.75950087879359,124.00989260465197 c-5.104885283262467,6.82470549904796 -5.104885283262467,17.810816790198338 0,24.8019785209304 c5.104885283262467,6.82470549904796 13.322505495343508,6.82470549904796 18.55190017575872,0 L244.5593861255224,123.53931359139733 C249.66427140878505,116.71460809234958 249.66427140878505,105.56204056951509 244.5593861255224,98.73733507046717 z" id="svg_4" />
      <path class="st0" d="M349.02277033667394,884.9101173144552 c5.104885283262467,-6.82470549904796 5.104885283262467,-17.810816790198338 0,-24.8019785209304 s-13.322505495343508,-6.82470549904796 -18.55190017575872,0 L226.63003293552748,999.0990922497458 H263.60932388989204 L349.02277033667394,884.9101173144552 z" id="svg_5" />
      <path class="st0" d="M364.0884073921557,839.9669347597492 c5.104885283262467,6.82470549904796 13.322505495343508,6.82470549904796 18.55190017575872,0 l66.7370368738703,-89.22054018267579 c5.104885283262467,-6.82470549904796 5.104885283262467,-17.810816790198338 0,-24.8019785209304 c-5.104885283262467,-6.82470549904796 -13.322505495343508,-6.82470549904796 -18.55190017575872,0 l-66.7370368738703,89.22054018267579 C358.9835221088934,822.1561179695511 358.9835221088934,833.1422292607015 364.0884073921557,839.9669347597492 L364.0884073921557,839.9669347597492 z" id="svg_6" />
      <path class="st0" d="M812.9447841277947,505.8892777697672 c5.104885283262467,6.82470549904796 13.322505495343508,6.82470549904796 18.55190017575872,0 l165.59749821314827,-221.3867881398485 V235.0649888197421 L812.9447841277947,481.08729924883687 C807.8398988445323,487.9120047478849 807.8398988445323,499.0645722707196 812.9447841277947,505.8892777697672 z" id="svg_7" />
      <path class="st0" d="M23.181677987945264,252.70934937825643 c5.104885283262467,-6.82470549904796 5.104885283262467,-17.810816790198338 0,-24.8019785209304 v0 c-5.104885283262467,-6.82470549904796 -13.322505495343508,-6.82470549904796 -18.55190017575872,0 l-3.735281914582293,4.993686950522898 v49.43750081017669 L23.181677987945264,252.70934937825643 z" id="svg_8" />
      <path class="st0" d="M738.114636438996,630.5649953011558 l59.266473044705705,-79.23316628162999 c5.104885283262467,-6.82470549904796 5.104885283262467,-17.810816790198338 0,-24.8019785209304 v0 c-5.104885283262467,-6.82470549904796 -13.322505495343508,-6.82470549904796 -18.55190017575872,0 l-59.266473044705705,79.23316628162999 c-5.104885283262467,6.82470549904796 -5.104885283262467,17.810816790198338 0,24.8019785209304 C724.6676215464997,637.3897008002037 733.0097511557335,637.3897008002037 738.114636438996,630.5649953011558 z" id="svg_9" />
      <path class="st0" d="M865.4877497262521,26.66178675125326 c-6.723507446248127,-8.988636510941218 -17.555824998536774,-8.988636510941218 -24.279332444784902,0 l-77.94288261761716,104.20160103424449 c-6.723507446248127,8.988636510941218 -6.723507446248127,23.470328667457622 0,32.45896517839884 s17.555824998536774,8.988636510941218 24.279332444784902,0 l77.94288261761716,-104.20160103424449 C872.2112571725002,50.29857165039493 872.2112571725002,35.65042326219452 865.4877497262521,26.66178675125326 L865.4877497262521,26.66178675125326 z" id="svg_10" />
      <path class="st0" d="M398.2039822120074,490.74176068651457 c-6.723507446248127,8.988636510941218 -6.723507446248127,23.470328667457622 0,32.45896517839884 c6.723507446248127,8.988636510941218 17.555824998536774,8.988636510941218 24.279332444784902,0 l16.310731027009343,-21.805766350616658 c6.723507446248127,-8.988636510941218 6.723507446248127,-23.470328667457622 0,-32.45896517839884 c-6.723507446248127,-8.988636510941218 -17.555824998536774,-8.988636510941218 -24.279332444784902,0 L398.2039822120074,490.74176068651457 z" id="svg_11" />
      <path class="st0" d="M254.89366608920017,515.0443705123924 L608.8738821944487,41.809303834505954 c2.241169148749377,-2.99621217031374 2.241169148749377,-7.823442889152541 0,-10.81965505946628 s-5.851941666178926,-2.99621217031374 -8.093110814928302,0 L246.80055527427186,504.2247154529264 c-2.241169148749377,2.99621217031374 -2.241169148749377,7.823442889152541 0,10.81965505946628 C249.04172442302132,518.0405826827065 252.6524969404507,518.0405826827065 254.89366608920017,515.0443705123924 z" id="svg_12" />
      <polygon class="st0" points="996.9696655273438,631.730135554375 996.9696655273438,610.0908642367576 705.9912109375,999.0991821289062 722.177490234375,999.0991821289062 " id="svg_13" />
      <path class="st0" d="M815.9330096594605,313.7987864063199 c-2.241169148749377,2.99621217031374 -2.241169148749377,7.823442889152541 0,10.81965505946628 v0 c2.241169148749377,2.99621217031374 5.851941666178926,2.99621217031374 8.093110814928302,0 L996.9696731195488,93.57719188825996 V71.93788176932748 L815.9330096594605,313.7987864063199 z" id="svg_14" />
      <path class="st0" d="M705.7421931792827,0.36170214516590704 L597.2945082592436,145.51153617369823 c-2.241169148749377,2.99621217031374 -2.241169148749377,7.823442889152541 0,10.81965505946628 v0 c2.241169148749377,2.99621217031374 5.851941666178926,2.99621217031374 8.093110814928302,0 L722.0529242062921,0.36170214516590704 H705.7421931792827 z" id="svg_15" />
      <polygon class="st0" points="54.43352127075195,0.3617264858839917 0.8944830298423767,71.93789544510219 0.8944830298423767,93.57716676271957 70.6197738647461,0.3617264858839917 " id="svg_16" />
      <path class="st0" d="M69.74819252307108,538.0153304847981 c2.241169148749377,-2.99621217031374 2.241169148749377,-7.823442889152541 0,-10.81965505946628 c-2.241169148749377,-2.99621217031374 -5.851941666178926,-2.99621217031374 -8.093110814928302,0 L0.8944958976042303,608.4263164871709 v21.63931011893256 L69.74819252307108,538.0153304847981 z" id="svg_17" />
      <path class="st0" d="M160.26652425311536,395.36233993152723 l-71.71741275998002,95.87878945003965 c-2.241169148749377,2.99621217031374 -2.241169148749377,7.823442889152541 0,10.81965505946628 s5.851941666178926,2.99621217031374 8.093110814928302,0 l71.71741275998002,-95.87878945003965 c2.241169148749377,-2.99621217031374 2.241169148749377,-7.823442889152541 0,-10.81965505946628 l0,0 C166.11846591929427,392.36612776121365 162.50769340186477,392.36612776121365 160.26652425311536,395.36233993152723 z" id="svg_18" />
      <path class="st0" d="M40.73750298648203,446.7973155219132 c-2.241169148749377,-2.99621217031374 -5.851941666178926,-2.99621217031374 -8.093110814928302,0 L0.8944958976042303,489.2436546013578 v21.63931011893256 l39.84300708887778,-53.26599413891092 C42.97867213523138,454.6207584110656 42.97867213523138,449.7935276922269 40.73750298648203,446.7973155219132 z" id="svg_19" />
      <path class="st0" d="M965.2197768455992,553.4957600314192 l31.749896273949485,-42.446339079444634 v-21.63931011893256 l-39.84300708887778,53.26599413891092 c-2.241169148749377,2.99621217031374 -2.241169148749377,7.823442889152541 0,10.81965505946628 C959.3678351794204,556.4919722017329 962.9786076968502,556.4919722017329 965.2197768455992,553.4957600314192 z" id="svg_20" />
      <path class="st0" d="M28.660091462665918,887.5734170214009 c-6.598998049095383,8.82218027925712 -6.598998049095383,22.970959972405332 0,31.793140251662454 v0 c6.598998049095383,8.82218027925712 17.182296807078547,8.82218027925712 23.78129485617393,0 l173.44159023377114,-231.87353073594664 c6.598998049095383,-8.82218027925712 6.598998049095383,-22.970959972405332 0,-31.793140251662454 h0 c-6.598998049095383,-8.82218027925712 -17.182296807078547,-8.82218027925712 -23.78129485617393,0 l-21.540125707424554,28.796928081348714 c-6.598998049095383,8.82218027925712 -17.182296807078547,8.82218027925712 -23.78129485617393,0 s-6.598998049095383,-22.970959972405332 0,-31.793140251662454 l59.01745425040022,-78.9002538182618 c6.598998049095383,-8.82218027925712 6.598998049095383,-22.970959972405332 0,-31.793140251662454 s-17.182296807078547,-8.82218027925712 -23.78129485617393,0 l-95.99674520476489,128.33775462843846 c-6.598998049095383,8.82218027925712 -17.182296807078547,8.82218027925712 -23.78129485617393,0 c-6.598998049095383,-8.82218027925712 -6.598998049095383,-22.970959972405332 0,-31.793140251662454 l34.240084217004345,-45.77546371312658 c6.598998049095383,-8.82218027925712 6.598998049095383,-22.970959972405332 0,-31.793140251662454 h0 c-6.598998049095383,-8.82218027925712 -17.182296807078547,-8.82218027925712 -23.78129485617393,0 L0.8944958976042303,670.3480346736549 V860.9404199519454 l69.47624361123063,-92.88257727972591 c6.598998049095383,-8.82218027925712 17.182296807078547,-8.82218027925712 23.78129485617393,0 s6.598998049095383,22.970959972405332 0,31.793140251662454 L28.660091462665918,887.5734170214009 z" id="svg_21" />
      <path class="st0" d="M763.6390628553081,290.16200150717805 L763.6390628553081,290.16200150717805 c-6.598998049095383,-8.82218027925712 -17.182296807078547,-8.82218027925712 -23.78129485617393,0 l-21.540125707424554,28.796928081348714 c-6.598998049095383,8.82218027925712 -17.182296807078547,8.82218027925712 -23.78129485617393,0 c-6.598998049095383,-8.82218027925712 -6.598998049095383,-22.970959972405332 0,-31.793140251662454 l59.01745425040022,-78.9002538182618 c6.598998049095383,-8.82218027925712 6.598998049095383,-22.970959972405332 0,-31.793140251662454 c-6.598998049095383,-8.82218027925712 -17.182296807078547,-8.82218027925712 -23.78129485617393,0 l-95.99674520476489,128.33775462843846 c-6.598998049095383,8.82218027925712 -17.182296807078547,8.82218027925712 -23.78129485617393,0 c-6.598998049095383,-8.82218027925712 -6.598998049095383,-22.970959972405332 0,-31.793140251662454 l34.240084217004345,-45.77546371312658 c6.598998049095383,-8.82218027925712 6.598998049095383,-22.970959972405332 0,-31.793140251662454 l0,0 c-6.598998049095383,-8.82218027925712 -17.182296807078547,-8.82218027925712 -23.78129485617393,0 L447.01166589588274,427.48839264655794 c-6.598998049095383,8.82218027925712 -6.598998049095383,22.970959972405332 0,31.793140251662454 v0 c6.598998049095383,8.82218027925712 17.182296807078547,8.82218027925712 23.78129485617393,0 l16.808768615620316,-22.471591277353046 c6.598998049095383,-8.82218027925712 17.182296807078547,-8.82218027925712 23.78129485617393,0 l0,0 c6.598998049095383,8.82218027925712 6.598998049095383,22.970959972405332 0,31.793140251662454 l-78.68993900053363,105.20033842434906 c-6.598998049095383,8.82218027925712 -6.598998049095383,22.970959972405332 0,31.793140251662454 s17.182296807078547,8.82218027925712 23.78129485617393,0 l151.65244573204106,-202.74369019122963 c6.598998049095383,-8.82218027925712 17.182296807078547,-8.82218027925712 23.78129485617393,0 c6.598998049095383,8.82218027925712 6.598998049095383,22.970959972405332 0,31.793140251662454 l-65.49194290234286,87.55597786583482 c-6.598998049095383,8.82218027925712 -6.598998049095383,22.970959972405332 0,31.793140251662454 v0 c6.598998049095383,8.82218027925712 17.182296807078547,8.82218027925712 23.78129485617393,0 l173.44159023377114,-231.87353073594664 C770.1135515072508,313.29941771126755 770.1135515072508,298.9841817864352 763.6390628553081,290.16200150717805 z" id="svg_22" />
      <path class="st0" d="M996.9696731195488,670.3480346736549 l-91.63891630441888,122.5117865194951 c-6.598998049095383,8.82218027925712 -6.598998049095383,22.970959972405332 0,31.793140251662454 s17.182296807078547,8.82218027925712 23.78129485617393,0 l16.808768615620316,-22.471591277353046 c6.598998049095383,-8.82218027925712 17.182296807078547,-8.82218027925712 23.78129485617393,0 h0 c6.598998049095383,8.82218027925712 6.598998049095383,22.970959972405332 0,31.793140251662454 l-78.68993900053363,105.20033842434906 c-6.598998049095383,8.82218027925712 -6.598998049095383,22.970959972405332 0,31.793140251662454 c6.598998049095383,8.82218027925712 17.182296807078547,8.82218027925712 23.78129485617393,0 l82.17620212081043,-109.86111291150378 V670.3480346736549 z" id="svg_23" />
      <path class="st0" d="M349.02277033667394,257.7030363287792 l13.571524289648996,-18.14372925356653 c6.349979254789895,-8.489267815888928 6.349979254789895,-22.305135045668948 0,-30.794402861557874 c-6.349979254789895,-8.489267815888928 -16.684259218467574,-8.489267815888928 -23.034238473257467,0 l-13.571524289648996,18.14372925356653 c-6.349979254789895,8.489267815888928 -6.349979254789895,22.305135045668948 0,30.794402861557874 l0,0 C332.3385111182063,266.19230414466836 342.672791081884,266.19230414466836 349.02277033667394,257.7030363287792 z" id="svg_24" />
      <path class="st0" d="M385.3795143052748,55.292258600917876 c6.349979254789895,8.489267815888928 16.684259218467574,8.489267815888928 23.034238473257467,0 l17.680334395689513,-23.63678489914172 c6.349979254789895,-8.489267815888928 16.684259218467574,-8.489267815888928 23.034238473257467,0 v0 c6.349979254789895,8.489267815888928 6.349979254789895,22.305135045668948 0,30.794402861557874 l-74.70563829164584,99.87373901045798 c-6.349979254789895,8.489267815888928 -6.349979254789895,22.305135045668948 0,30.794402861557874 c6.349979254789895,8.489267815888928 16.684259218467574,8.489267815888928 23.034238473257467,0 l33.99106542269886,-45.442551249758374 c6.349979254789895,-8.489267815888928 16.684259218467574,-8.489267815888928 23.034238473257467,0 s16.684259218467574,8.489267815888928 23.034238473257467,0 L587.7072846784826,0.36170214516590704 h-184.27390778605974 l-18.053862587147748,24.13615359419401 C379.0295350504849,32.98712355524884 379.0295350504849,46.6365345533448 385.3795143052748,55.292258600917876 z" id="svg_25" />
      <path class="st0" d="M681.9608983231087,811.3364629100847 l-38.7224225145031,51.76788805375404 c-6.349979254789895,8.489267815888928 -6.349979254789895,22.305135045668948 0,30.794402861557874 c6.349979254789895,8.489267815888928 16.684259218467574,8.489267815888928 23.034238473257467,0 l38.7224225145031,-51.76788805375404 c6.349979254789895,-8.489267815888928 6.349979254789895,-22.305135045668948 0,-30.794402861557874 v0 C698.6451575415763,802.8471950941957 688.3108775778987,802.8471950941957 681.9608983231087,811.3364629100847 z" id="svg_26" />
      <path class="st0" d="M632.9041958449283,938.6754801484187 c6.349979254789895,-8.489267815888928 6.349979254789895,-22.305135045668948 0,-30.794402861557874 l0,0 c-6.349979254789895,-8.489267815888928 -16.684259218467574,-8.489267815888928 -23.034238473257467,0 l-38.59791311735035,51.60143182206995 c-6.349979254789895,8.489267815888928 -16.684259218467574,8.489267815888928 -23.034238473257467,0 c-6.349979254789895,-8.489267815888928 -6.349979254789895,-22.305135045668948 0,-30.794402861557874 l10.832317552288645,-14.481692156516404 c6.349979254789895,-8.489267815888928 6.349979254789895,-22.305135045668948 0,-30.794402861557874 s-6.349979254789895,-22.305135045668948 0,-30.794402861557874 l59.76451063331668,-79.89899120836637 c6.349979254789895,-8.489267815888928 6.349979254789895,-22.305135045668948 0,-30.794402861557874 c-6.349979254789895,-8.489267815888928 -16.684259218467574,-8.489267815888928 -23.034238473257467,0 L403.30886749526985,999.0990922497458 h184.27390778605974 L632.9041958449283,938.6754801484187 z" id="svg_27" />
    </g>
  </g>
</svg>