<?xml version="1.0" encoding="UTF-8" standalone="no"?>
<svg xmlns:dc="http://purl.org/dc/elements/1.1/" xmlns:cc="http://creativecommons.org/ns#" xmlns:rdf="http://www.w3.org/1999/02/22-rdf-syntax-ns#" xmlns:svg="http://www.w3.org/2000/svg" xmlns="http://www.w3.org/2000/svg" xmlns:sodipodi="http://sodipodi.sourceforge.net/DTD/sodipodi-0.dtd" xmlns:inkscape="http://www.inkscape.org/namespaces/inkscape" version="1.1" id="svg2" xml:space="preserve" width="100" height="100" viewBox="0 0 2560 2560" sodipodi:docname="a-heart-2438744.ai">
  <rect fill="none" width="100%" height="100%" />
  <metadata id="metadata8">
    <rdf:RDF>
      <cc:Work rdf:about="">
        <dc:format>image/svg+xml</dc:format>
        <dc:type rdf:resource="http://purl.org/dc/dcmitype/StillImage" />
      </cc:Work>
    </rdf:RDF>
  </metadata>
  <defs id="defs6">
    <clipPath clipPathUnits="userSpaceOnUse" id="clipPath18">
      <path d="M 0,1920 H 1920 V 0 H 0 Z" id="path16" />
    </clipPath>
    <clipPath clipPathUnits="userSpaceOnUse" id="clipPath26">
      <path d="M 0,1920 H 1920 V 0 H 0 Z" id="path24" />
    </clipPath>
  </defs>
  <sodipodi:namedview pagecolor="#ffffff" bordercolor="#666666" borderopacity="1" objecttolerance="10" gridtolerance="10" guidetolerance="10" inkscape:pageopacity="0" inkscape:pageshadow="2" inkscape:window-width="640" inkscape:window-height="480" id="namedview4" />
  <g id="g10" inkscape:groupmode="layer" inkscape:label="a-heart-2438744" transform="matrix(1.3333333,0,0,-1.3333333,0,2560)">
    <g id="g12">
      <g id="g14" clip-path="url(#clipPath18)">
        <g id="g20">
          <g id="g22" />
          <g id="g32">
            <g clip-path="url(#clipPath26)" opacity="0" id="g30">
              <path d="M 1920,0 H 0 v 1920 h 1920 z" style="fill:#000000;fill-opacity:1;fill-rule:nonzero;stroke:none" id="path28" />
            </g>
          </g>
        </g>
        <g id="g34" transform="translate(952.7822,439.626)">
          <path d="m 0,0 c -88.049,203.913 -570.351,378.697 -564.857,736.21 5.368,349.382 490.788,420.399 572.947,88.489 88.656,330.447 572.602,251.128 571.115,-98.287 C 577.685,368.865 92.035,202.371 0,0 m 8.18,833.397 c -95.076,340.9 -654.317,268.499 -660.073,-90.248 -5.89,-367.095 550.061,-547.085 651.767,-756.562 105.798,207.7 665.187,378.138 666.499,745.272 1.283,358.786 -556.444,440.752 -658.193,101.538" style="fill:#800080;fill-opacity:1;fill-rule:nonzero;stroke:none" id="path36" />
        </g>
      </g>
    </g>
  </g>
</svg>